<?xml version="1.0" encoding="UTF-8"?>
<svg id="Layer_1" xmlns="http://www.w3.org/2000/svg" xmlns:xlink="http://www.w3.org/1999/xlink" version="1.1" viewBox="0 0 1080 1080">
  <!-- Generator: Adobe Illustrator 30.4.0, SVG Export Plug-In . SVG Version: 2.1.4 Build 226)  -->
  <defs>
    <style>
      .st0 {
        fill: url(#linear-gradient1);
      }

      .st1 {
        fill: url(#linear-gradient);
      }

      .st2 {
        fill: #612032;
      }

      .st3 {
        fill: #5f1625;
      }

      .st4 {
        fill: #8b2e47;
      }

      .st5 {
        fill: #3c101c;
      }
    </style>
    <linearGradient id="linear-gradient" x1="109.1" y1="299.2" x2="1053.8" y2="822.5" gradientTransform="translate(0 1077.8898) scale(1 -1)" gradientUnits="userSpaceOnUse">
      <stop offset="0" stop-color="#fff"/>
      <stop offset="1" stop-color="#e4d5d0"/>
    </linearGradient>
    <linearGradient id="linear-gradient1" x1="729" y1="384.3" x2="937.5" y2="384.3" gradientUnits="userSpaceOnUse">
      <stop offset="0" stop-color="#de93a1"/>
      <stop offset="1" stop-color="#d2647b"/>
    </linearGradient>
  </defs>
  <rect class="st1" y="0" width="1080" height="1080"/>
  <g>
    <path class="st4" d="M255.9,457.1c1.9,10.4,8.2,27.4,15.3,41.1l37.2,71.7,29.8-70.6c7.4-17.5,9-34,4.1-42.2h22.2c-6.8,8.5-15.6,24.1-22.7,41.1l-40.5,95.8c-23.5,55.9-34.2,71.2-49.6,71.2s-13.1-3.3-23.5-13.7l-6.8-40.8c12.3,27.1,25.7,43.5,35.9,43.5s19.7-11.2,34.8-45.7l-56.4-110.3c-9.9-19.4-19.4-34.2-26.3-41.1h46.5Z"/>
    <path class="st4" d="M428.4,454.4c38.1,0,66,20.8,66,49.3,0,52-94.2,41.9-95,69.5,9.9,12.6,23.8,18.9,40,18.9s34.5-8.5,47.4-25.2h3.3c-13.1,20-32.3,29.8-59.1,29.8-47.6,0-82.4-30.4-82.4-71.5s33.9-70.9,79.9-70.9h0ZM381.3,519.3c0,21.4,5.2,38.3,15.6,50.1,3.6-25.7,67.4-28.7,67.4-69.5s-18.6-42.4-40.5-42.4-42.4,25.5-42.4,61.9h-.1Z"/>
    <path class="st4" d="M529.2,416h5.5v41.1h30.9v2.7h-30.9v99.9c0,19.7,11.5,31.5,30.9,31.5v2.7h-8.8c-35.9,0-54.2-14.8-54.2-42.7v-91.4h-5.5v-2.7c13.7-3.8,28.2-24.4,32-41.1h0Z"/>
    <path class="st4" d="M591.6,404.3c11.8,0,20.8,7.7,20.8,16.7s-9,17-20.8,17-20.5-7.7-20.5-17,9-16.7,20.5-16.7ZM609.1,552.9c0,15.3,2.2,31.8,5.5,41.1h-43c3.3-9.3,5.5-25.7,5.5-41.1v-54.8c0-15.3-2.2-31.8-5.5-41.1h37.5v95.8h0Z"/>
    <path class="st4" d="M745.8,562c0,21.9-22.7,34.8-61.6,34.8s-48.2-5.5-61.9-15.6l-4.9-36.1c16.2,30.9,38.3,48.5,61.6,48.5s37.2-12.3,37.2-26.8c0-33.4-98.8-26.6-98.8-70.1s29-42.2,66.8-42.2,34.8,4.4,50.7,13.7l5.5,36.1c-17.8-29.6-38.1-45.7-57.2-45.7s-36.1,14.8-36.1,30.4c0,37,98.8,27.7,98.8,73.1h0Z"/>
    <path class="st2" d="M458.3,722.8c0,21.9-22.7,34.8-61.6,34.8s-48.2-5.5-61.9-15.6l-4.9-36.1c16.2,30.9,38.3,48.5,61.6,48.5s37.2-12.3,37.2-26.8c0-33.4-98.8-26.6-98.8-70.1s29-42.2,66.8-42.2,34.8,4.4,50.7,13.7l5.5,36.1c-17.8-29.6-38.1-45.7-57.2-45.7s-36.1,14.8-36.1,30.4c0,37,98.8,27.7,98.8,73.1h-.1Z"/>
    <path class="st2" d="M597.9,698.1c0,21.9,2.2,45.2,5.5,58.3h-37.5v-35.3c-6.6,22.5-25.2,36.4-48.5,36.4s-53.7-26.3-53.7-65.7v-32.9c0-15.3-2.2-31.8-5.5-41.1h36.4v63c0,41.3,12,62.4,33.9,62.4s37.2-17.2,37.2-40v-44.4c0-15.3-2.2-31.8-5.5-41.1h37.5v80.2l.2.2Z"/>
    <path class="st2" d="M640.3,686.4c0,40.5,22.2,65.7,56.4,65.7s33.4-8.2,45.7-24.4h3.3c-12.9,20.3-31.8,29.8-58,29.8-46.5,0-80.2-30.4-80.2-72.3s33.1-70.1,82.1-70.1,33.4,4.1,50.4,13.7l6.3,40.8c-18.1-33.4-38.3-51.5-58.6-51.5s-47.4,29.6-47.4,68.2h0Z"/>
    <path class="st2" d="M888.7,698.1c0,21.9,2.2,45.2,5.5,58.3h-37.5v-35.3c-6.6,22.5-25.2,36.4-48.5,36.4s-53.7-26.3-53.7-65.7v-32.9c0-15.3-2.2-31.8-5.5-41.1h36.4v63c0,41.3,12,62.4,34,62.4s37.2-17.2,37.2-40v-44.4c0-15.3-2.2-31.8-5.5-41.1h37.5v80.4Z"/>
  </g>
  <g>
    <path class="st3" d="M240.9,335.2c-12.2-.4-25.1,2.5-37.1,5.5-11.1,2.8-22.4,7.4-33,11.2-6.3,20.1-11.8,39.9-15,57.8-3.6,20-2.8,35.7,3.4,46.2,8.8,8.8-4.2,16.5-10.5,2.8-4.2-8.3-3-26.6,1.6-50.8,0-21.1-3.8-42.4-23.8-48.7-15.1-4.2-4.2-18.3,3.9-11.2,9,4.7,20.3,3.3,33.3-.3,9.9-41.1,22.9-84.6,38.3-116.1,5.7-11.6,20.5-7.4,11.5,7.4-.5,2.1-22.9,52.8-40.3,105.8,10.5-3.3,21.7-7.4,32.9-10,9.5-2.2,22.9-4.7,36.5-5.1,4.1-14.1,8.4-26.7,12.5-37.1,6.1-15.4,12.5-30,19.2-44,5.7-11.6,20.5-7.4,11.5,7.4.3-.9-7.9,13.2-17.8,34.5-4.3,9.1-10.4,23.2-16.2,39.5,11.6.9,22.1,4.2,28.8,11.6s-4.2,10.4-6.7,6.2c-7-6.8-15.3-10.4-24.2-11.8-13.2,37.8-24,84.9-8.7,104.4,5.5,7.2-6.7,13.8-10.5,2.8-8-22.8-.4-68.8,10.5-107.8v-.2ZM161.9,354.9c-7,2.5-13.6,3.4-21.3,3.8,8.6,8.4,12.2,18.7,13.7,29.7,2.2-10.7,4.9-22,7.6-33.6h0Z"/>
    <path class="st3" d="M295.1,374.3c-1.1,5.7,3,4.1,5.9,1.4,7.6-6.3,17.9-24.6,20-26.7,6.1-5,13.6-.1,10.8,5.9-6.7,13.8-6.6,22.8-.4,24.2,12.6,1.1,32.5-20.3,41.3-31.1,3.6-5,9.6-2.5,4.2,3.3-11.2,13.7-29.5,34.1-48.3,33-11.8-.7-14.3-9.6-9.9-19.5-7.9,10-17.4,22.1-28,16.8-7.2-3.4-6.6-12.8-5.3-19,2.4-11.5,8.4-23.3,11.7-28,5.3-7.1,13-3.2,10.9,5.5-1.7,5.9-11.6,25.8-13,34v.2ZM318.8,321.8c-3.2,5.3-12.8,4.2-10.7-3.2,2.1-8.8,19.2-15,10.7,3.2ZM345.1,321.8c-3.2,5.3-12.8,4.2-10.7-3.2,2.1-8.8,19.2-15,10.7,3.2Z"/>
    <path class="st3" d="M376.7,425.6c13.3,3.7,39.4-30.7,55.7-58,4.1-6.8,7.9-13.6,12-19.5,3.8-6.3,8.6-2.6,3.9,3.7-4.3,6.7-8.7,14.1-13.3,21.6-16.5,27.6-44,57.3-59.5,55.5-21.1-2.6-14-40.5-6.1-69.1,11.7-44,30.7-92.1,46.3-108.3,8.7-8.7,21.6-8,18.4,9.1-4.2,23.2-31.6,60.7-49,83.3-6.3,13-28.3,76.6-8.6,81.7h.2ZM390.6,327.3c9.9-14.2,21.3-32,29-47.3,10.9-21.5,5.1-21.2-6.8-2.2-8.4,13.6-15.9,31.7-22.1,49.5h-.1Z"/>
    <path class="st3" d="M482.2,349.7c-3.2,4.6-7.6,11.6-12,17.9-6.3,9.5-13.8,17.1-23,13.7-7.5-2.9-7.4-15.8-5.9-22,2.5-11.7,7.8-23.7,11.7-28,4.9-5.9,12.4-2.1,10.9,5.5-1.7,5.9-12.4,21.1-13,34-1.1,5.7,3,4.1,5.9,1.4,7.4-6.1,20.8-21.8,26.3-30.8,1.6-2.2,6.4-4.7,6.4,2.4-.1,7.4-1.3,20.7-4.1,36.6,15.8-14.1,37.1-26.6,54-32.2,8.4-3.2,5.8,3.9,2.6,4.6-18,4.2-42.6,20.7-58.2,36.6-6.3,33.2-19,74.1-40.3,94.4-8.8,8.4-21.6,8.2-18.4-9.1,4.2-23,34.1-64.6,49-83.3,4.2-14,8-32.8,9.7-41.1.9-4.3,0-3.2-1.7-.5h.1ZM468.9,407.9c-9.9,14.1-21.2,32.1-29,47.3-10.9,21.5-5.1,21.2,6.8,2.2,8.4-13.6,15.9-31.7,22.1-49.5h.1Z"/>
    <path class="st3" d="M539.4,375.3c-4.2-2.1-5.3-7.9-4.6-13.3,2.5-21.6,24.4-38.7,46.3-35.5,6.7.9,12.9,3.9,15.9,10.3,2.8,5.9-4.7,7.4-7.2,1.1-2.5-4.6-6.3-6.8-10.5-7.2-10.8-1.1-23.4,11.3-28.3,23.3-1.1,2.4-3.7,9.3-1.8,11.8,2.1,3.2,24.2-21.3,26.9-24,6.3-5.9,13.6-3.2,11.7,2.6-5.9,17.9-2.4,25.5,5,27.2,12.6,2.8,37-12.2,46.5-23.6,3.6-5,9.6-2.5,4.2,3.3-11.7,13.8-33.8,27.8-53.2,25.7-15.8-1.4-21.2-15.1-13.8-29.5-5.7,4.6-22.8,35.1-37,27.8h-.1Z"/>
  </g>
  <g>
    <path class="st5" d="M489.1,281.1c-2.2,0-4.2-.4-5.8-1.2-1.6-.8-3-1.9-4-3.2s-1.8-2.7-2.4-4.2c-.5-1.5-.8-2.9-.8-4.3v-.8c0-1.5.3-3,.8-4.5s1.3-2.9,2.4-4.1,2.4-2.3,4-3c1.6-.8,3.5-1.1,5.7-1.1s4.1.4,5.7,1.1c1.6.8,3,1.8,4,3,1.1,1.2,1.9,2.6,2.4,4.1s.8,3,.8,4.5v.8c0,1.4-.3,2.8-.8,4.3s-1.3,2.9-2.4,4.2-2.4,2.4-4,3.2c-1.6.8-3.6,1.2-5.8,1.2h.2ZM489.1,278c1.5,0,2.8-.3,4-.8s2.2-1.3,3-2.3,1.5-2,1.9-3.2.7-2.5.7-3.8-.2-2.7-.7-3.9c-.4-1.2-1.1-2.3-1.9-3.2s-1.8-1.7-3-2.2-2.5-.8-4-.8-2.8.3-4,.8-2.2,1.3-3,2.2-1.5,2-1.9,3.2-.7,2.5-.7,3.9.2,2.6.7,3.8c.4,1.2,1.1,2.3,1.9,3.2.8,1,1.8,1.7,3,2.3,1.2.5,2.5.8,4,.8Z"/>
    <path class="st5" d="M507.1,287.3v-25.2h2.6v7.9h-.6c.1-2,.5-3.6,1.3-4.9.7-1.2,1.7-2.2,2.8-2.8s2.4-.9,3.8-.9,2.5.3,3.6.8,2,1.2,2.8,2.1,1.4,1.9,1.8,3c.4,1.1.6,2.4.6,3.6v.6c0,1.3-.2,2.5-.7,3.6-.4,1.1-1,2.2-1.8,3-.8.9-1.7,1.6-2.8,2.1s-2.3.8-3.6.8-2.6-.3-3.7-.9c-1.2-.6-2.2-1.5-3-2.8s-1.2-3-1.3-5.1l1.5,2.7v12.2h-3.3v.2ZM516.4,278.2c1.2,0,2.3-.3,3.2-.9s1.6-1.4,2.1-2.4.8-2.2.8-3.6-.3-2.6-.8-3.6-1.2-1.8-2.1-2.4c-.9-.6-2-.9-3.2-.9s-2.1.2-3.1.7c-.9.5-1.7,1.2-2.3,2.1-.6.9-.8,2-.8,3.4v1.6c0,1.3.3,2.3.9,3.2s1.3,1.6,2.3,2.1c.9.5,1.9.7,3,.7h0Z"/>
    <path class="st5" d="M529.6,280.4v-4.2h4v4.2h-4Z"/>
    <path class="st5" d="M547.6,280.6v-25.4h3.4v25.4h-3.4ZM550.3,280.6v-3.1h6.3c1.5,0,2.9-.2,4-.7s2.2-1.2,3-2c.8-.9,1.5-1.9,1.9-3.1s.7-2.4.7-3.8-.2-2.7-.7-3.9c-.4-1.2-1.1-2.2-1.9-3-.8-.9-1.8-1.5-3-2s-2.5-.7-4-.7h-6.3v-3.1h5.9c2.3,0,4.2.3,5.9,1,1.7.7,3.1,1.6,4.2,2.8,1.1,1.2,1.9,2.5,2.5,4,.5,1.5.8,2.9.8,4.5v.8c0,1.5-.3,2.9-.8,4.4s-1.4,2.8-2.5,4-2.5,2.1-4.2,2.9c-1.7.7-3.6,1.1-5.9,1.1h-5.9Z"/>
    <path class="st5" d="M574.3,280.4v-18.3h2.6v7.6h0c0-2.7.6-4.6,1.8-5.9,1.2-1.2,2.9-1.9,5.3-1.9h.6v3h-1.2c-1.8,0-3.2.5-4.2,1.5s-1.5,2.4-1.5,4.2v9.9h-3.3,0Z"/>
    <path class="st5" d="M585.6,280.4v-4.2h4v4.2h-4Z"/>
  </g>
  <g>
    <path class="st5" d="M543.4,805.8v-23.4h3.1v23.4h-3.1ZM558.1,805.8l-9.5-10.9h-3.4l10.8-12.4h3.6l-9.9,11.3-.3-2.2,12.5,14.3h-3.9.1Z"/>
    <path class="st5" d="M562.5,805.8l8.4-23.4h5.3l8.7,23.4h-3.2l-7.8-21.3,1.5.8h-3.8l1.6-.8-7.6,21.3h-3.1ZM567.5,798.8l1.1-2.8h10.1l1.1,2.8h-12.3Z"/>
    <path class="st5" d="M589.1,805.9v-23.6h3.1v23.6h-3.1ZM591.6,805.9v-2.9h5.8c1.4,0,2.7-.2,3.8-.7s2-1.1,2.8-1.9c.8-.8,1.4-1.8,1.8-2.8.4-1.1.6-2.3.6-3.5s-.2-2.5-.6-3.6c-.4-1.1-1-2-1.8-2.8s-1.7-1.4-2.8-1.8c-1.1-.4-2.4-.6-3.8-.6h-5.8v-2.9h5.5c2.1,0,3.9.3,5.5,1s2.9,1.5,3.9,2.6,1.8,2.3,2.3,3.7.8,2.7.8,4.1v.7c0,1.4-.3,2.7-.8,4.1s-1.3,2.6-2.3,3.7c-1,1.1-2.3,2-3.9,2.7-1.6.7-3.4,1-5.5,1h-5.5Z"/>
    <path class="st5" d="M614.5,805.8v-23.4h3.1v23.4h-3.1Z"/>
    <path class="st5" d="M624.5,805.8v-23.4h5.1l11.9,20.5h1l-.6.6v-21.1h3v23.4h-5.2l-11.9-20.5h-1l.6-.6v21.1h-2.9,0Z"/>
    <path class="st5" d="M658.9,805.8v-23.4h3.1v23.4h-3.1ZM661.4,795.5v-2.8h13.9v2.8h-13.9ZM674.7,805.8v-23.4h3.1v23.4h-3.1Z"/>
    <path class="st5" d="M682.2,805.8l8.4-23.4h5.3l8.7,23.4h-3.2l-7.8-21.3,1.5.8h-3.8l1.6-.8-7.6,21.3h-3.1ZM687.2,798.8l1.1-2.8h10.1l1.1,2.8h-12.3Z"/>
    <path class="st5" d="M716.2,806.3c-1.9,0-3.6-.3-5-1-1.4-.6-2.4-1.5-3.1-2.7-.7-1.1-1.1-2.4-1.1-3.8h3.1c0,.7.2,1.4.6,2.1s1,1.3,1.9,1.8,2.1.7,3.6.7,2.6-.2,3.5-.6c.9-.4,1.6-1,2-1.6s.6-1.4.6-2.2-.4-1.8-1.2-2.4c-.8-.6-2-1-3.6-1.2l-2.6-.2c-2.1-.2-3.7-.8-5-1.9s-1.9-2.6-1.9-4.4.3-2.7,1-3.7c.7-1.1,1.7-1.9,2.9-2.5s2.7-.9,4.3-.9,3,.3,4.3.9c1.2.6,2.2,1.4,2.9,2.5s1,2.4,1,3.9h-3.1c0-.7-.2-1.5-.5-2.1-.4-.7-.9-1.2-1.6-1.6-.7-.4-1.7-.6-2.9-.6s-2.1.2-2.9.6-1.3.9-1.7,1.6c-.4.7-.6,1.3-.6,2.1s.3,1.6,1,2.3,1.6,1,2.9,1.2l2.6.2c1.6,0,3,.5,4.1,1,1.2.5,2.1,1.3,2.7,2.2s.9,2,.9,3.2-.4,2.7-1.2,3.8-1.8,2-3.2,2.6-3,.9-4.8.9v-.2Z"/>
    <path class="st5" d="M727.6,785.2v-2.8h17.3v2.8h-17.3ZM734.7,805.8v-21.2h3.1v21.2h-3.1Z"/>
    <path class="st5" d="M744.8,805.8l8.4-23.4h5.3l8.7,23.4h-3.2l-7.8-21.3,1.5.8h-3.8l1.6-.8-7.6,21.3h-3.1ZM749.9,798.8l1.1-2.8h10.1l1.1,2.8h-12.3Z"/>
    <path class="st5" d="M771.5,805.8v-23.4h3.1v23.4h-3.1ZM774,805.8v-2.8h10.7v2.8h-10.7Z"/>
    <path class="st5" d="M789,805.8v-23.4h3.1v23.4h-3.1Z"/>
    <path class="st5" d="M799,805.8v-23.4h3.1v23.4h-3.1ZM813.7,805.8l-9.5-10.9h-3.4l10.8-12.4h3.6l-9.9,11.3-.3-2.2,12.5,14.3h-3.9.1Z"/>
    <path class="st5" d="M820.7,805.8v-23.4h3.1v23.4h-3.1ZM823.2,805.8v-2.8h10.7v2.8h-10.7Z"/>
    <path class="st5" d="M835.9,805.8l8.4-23.4h5.3l8.7,23.4h-3.2l-7.8-21.3,1.5.8h-3.8l1.6-.8-7.6,21.3h-3.1ZM841,798.8l1.1-2.8h10.1l1.1,2.8h-12.3Z"/>
    <path class="st5" d="M862.6,805.8v-23.5h3.1v23.5h-3.1ZM864.6,797.3v-2.8h6.3c1,0,1.8-.2,2.5-.6.7-.4,1.2-1,1.6-1.7.4-.7.6-1.5.6-2.4s-.2-1.7-.6-2.4c-.4-.7-.9-1.3-1.6-1.7-.7-.4-1.5-.6-2.5-.6h-6.3v-2.8h5.7c1.7,0,3.2.3,4.5.8s2.3,1.3,3,2.4c.7,1.1,1.1,2.4,1.1,4.1v.5c0,1.7-.4,3.1-1.1,4.1-.7,1.1-1.7,1.9-3,2.4s-2.8.8-4.5.8h-5.7ZM877.1,805.8l-7.7-10.4h3.7l7.9,10.4h-3.9Z"/>
    <path class="st5" d="M885.1,805.8v-23.4h3.1v23.4h-3.1Z"/>
    <path class="st5" d="M548.8,844.1l-8.1-23.4h3.2l7.3,21.3-1.5-.8h3.8l-1.6.8,6.7-21.3h3.1l-7.5,23.4h-5.4Z"/>
    <path class="st5" d="M568,844.1v-23.4h3.1v23.4h-3.1ZM570.5,823.6v-2.8h11v2.8h-11ZM570.5,833.7v-2.8h10.3v2.8h-10.3ZM570.5,844.1v-2.8h11.3v2.8h-11.3Z"/>
    <path class="st5" d="M598.3,844.3v-23.6h3.1v23.6h-3.1ZM600.8,844.3v-2.9h5.8c1.4,0,2.7-.2,3.8-.7s2-1.1,2.8-1.9c.8-.8,1.4-1.8,1.8-2.8.4-1.1.6-2.3.6-3.5s-.2-2.5-.6-3.6c-.4-1.1-1-2-1.8-2.8s-1.7-1.4-2.8-1.8c-1.1-.4-2.4-.6-3.8-.6h-5.8v-2.9h5.5c2.1,0,3.9.3,5.5,1s2.9,1.5,3.9,2.6,1.8,2.3,2.3,3.7.8,2.7.8,4.1v.7c0,1.4-.3,2.7-.8,4.1s-1.3,2.6-2.3,3.7c-1,1.1-2.3,2-3.9,2.7-1.6.7-3.4,1-5.5,1h-5.5Z"/>
    <path class="st5" d="M636,844.7c-2.1,0-3.9-.4-5.4-1.1s-2.8-1.7-3.7-2.9c-1-1.2-1.7-2.5-2.2-3.9s-.7-2.7-.7-4v-.7c0-1.4.2-2.8.7-4.2s1.2-2.7,2.2-3.9,2.3-2.1,3.8-2.8,3.3-1.1,5.3-1.1,3.8.4,5.3,1.1,2.8,1.6,3.8,2.8,1.7,2.4,2.2,3.9c.5,1.4.7,2.8.7,4.2v.7c0,1.3-.2,2.6-.7,4s-1.2,2.7-2.2,3.9-2.2,2.2-3.7,2.9-3.3,1.1-5.4,1.1h0ZM636,841.8c1.4,0,2.6-.3,3.7-.8s2-1.2,2.8-2.1c.8-.9,1.4-1.9,1.8-3,.4-1.1.6-2.3.6-3.5s-.2-2.5-.6-3.6-1-2.1-1.8-3-1.7-1.5-2.8-2-2.3-.7-3.7-.7-2.6.2-3.7.7c-1.1.5-2,1.2-2.8,2-.8.9-1.4,1.9-1.8,3-.4,1.1-.6,2.3-.6,3.6s.2,2.4.6,3.5c.4,1.1,1,2.1,1.8,3s1.7,1.6,2.8,2.1,2.3.8,3.7.8Z"/>
    <path class="st5" d="M665.5,844.7c-1.8,0-3.5-.3-4.9-.9-1.5-.6-2.7-1.4-3.8-2.5s-1.9-2.4-2.4-3.9-.9-3.1-.9-4.8v-.7c0-1.5.3-2.9.8-4.3.5-1.4,1.3-2.7,2.3-3.8s2.2-2,3.6-2.7,3-1,4.8-1,3.7.4,5.2,1.1c1.5.7,2.7,1.8,3.6,3.1s1.5,2.8,1.6,4.6h-3.2c0-1.3-.6-2.4-1.3-3.2-.7-.9-1.6-1.5-2.6-2-1-.4-2.1-.7-3.3-.7s-2.3.2-3.4.7-1.9,1.1-2.6,1.9c-.7.8-1.3,1.8-1.7,2.9-.4,1.1-.6,2.4-.6,3.8s.2,3,.7,4.2c.4,1.2,1,2.2,1.8,3s1.7,1.4,2.8,1.8c1.1.4,2.3.6,3.5.6,1.8,0,3.4-.4,4.8-1.1,1.4-.7,2.4-1.7,3.1-2.9l-1.2,3.8v-6.9h2.9v5.6c-1,1.4-2.4,2.4-4,3.2s-3.5,1.2-5.7,1.2h.1ZM665,819.1c-1.2,0-2.2-.2-3-.7s-1.3-1.1-1.7-2c-.4-.8-.6-1.7-.7-2.7h2.2c0,.9.3,1.7.8,2.4s1.3,1,2.4,1,2-.3,2.5-1,.8-1.5.8-2.4h2c0,1-.3,1.9-.6,2.7-.4.8-1,1.5-1.7,2-.8.5-1.7.7-3,.7ZM664.7,835.4v-2.6h12.5v2.6h-12.5Z"/>
    <path class="st5" d="M692.9,844.7c-2.1,0-3.9-.4-5.3-1.2-1.4-.8-2.5-2-3.3-3.5-.7-1.5-1.1-3.2-1.1-5.2v-14.1h3.1v14.5c0,1.3.3,2.4.8,3.4s1.2,1.8,2.2,2.3c1,.6,2.2.8,3.6.8s2.6-.3,3.6-.8,1.7-1.3,2.2-2.3.8-2.1.8-3.5v-14.5h3.1v14.1c0,2-.4,3.7-1.1,5.2-.7,1.5-1.8,2.6-3.2,3.5-1.4.8-3.2,1.2-5.3,1.2h0Z"/>
    <path class="st5" d="M710.8,844.1v-23.4h4.2l6.9,15.6h.5l6.9-15.6h4.2v23.4h-3.1v-19.9h.2l-6.6,15.1h-3.8l-6.7-15h.3v19.9h-3Z"/>
    <path class="st5" d="M760.6,844.7c-2.1,0-3.9-.4-5.3-1.2-1.4-.8-2.5-2-3.3-3.5-.7-1.5-1.1-3.2-1.1-5.2v-14.1h3.1v14.5c0,1.3.3,2.4.8,3.4s1.2,1.8,2.2,2.3c1,.6,2.2.8,3.6.8s2.6-.3,3.6-.8,1.7-1.3,2.2-2.3.8-2.1.8-3.5v-14.5h3.1v14.1c0,2-.4,3.7-1.1,5.2-.7,1.5-1.8,2.6-3.2,3.5-1.4.8-3.2,1.2-5.3,1.2h0Z"/>
    <path class="st5" d="M776.7,844.1v-3.8l14.4-16.9v.8l-.9-1.2.5.4h-13.8v-2.6h16.8v3.8l-14.4,16.9v-.9l1,1.4-.8-.5h14.7v2.6h-17.5Z"/>
    <path class="st5" d="M801,844.1v-23.4h4.2l6.9,15.6h.5l6.9-15.6h4.2v23.4h-3.1v-19.9h.2l-6.6,15.1h-3.8l-6.7-15h.3v19.9h-3Z"/>
    <path class="st5" d="M829.8,844.1l8.4-23.4h5.3l8.7,23.4h-3.2l-7.8-21.3,1.5.8h-3.8l1.6-.8-7.6,21.3h-3.1ZM834.8,837.2l1.1-2.8h10.1l1.1,2.8h-12.3Z"/>
    <path class="st5" d="M858.4,844.1v-23.4h5.1l11.9,20.5h1l-.6.6v-21.1h3v23.4h-5.2l-11.9-20.5h-1l.6-.6v21.1h-2.9,0Z"/>
    <path class="st5" d="M887.6,844.1v-23.4h3.1v23.4h-3.1Z"/>
  </g>
  <g id="ROSrp6">
    <path class="st0" d="M882.6,433.6l-16.2,15.2-28.3,25.4c-2.7,2.5-6.5,3.3-9.4.6l-22.8-20.4c-13.9-12.4-27.1-24.9-39.8-38.5-11.4-12.2-23.5-26.9-30.4-42s-8-26.3-5.8-39.9c2.8-17.4,14.1-31.6,30.5-38,17.2-6.7,36-4.3,51.8,5.2,8.2,5,15,11.4,21,18.8,11-12.9,23.1-22.4,39.8-26.3,26.7-6.3,54.1,6.6,62.2,33.3,6.1,20.1.5,41-10.5,58.4-5.3,8.4-11.3,15.9-17.9,23.4-7.6,8.7-15.4,16.7-23.9,24.8Z"/>
  </g>
</svg>