<?xml version="1.0" encoding="UTF-8"?>
<svg id="Layer_2" data-name="Layer 2" xmlns="http://www.w3.org/2000/svg" viewBox="0 0 330.3 124.05" width="330.3" height="124.05">
  <defs>
    
  </defs>
  <g id="Layer_1-2" data-name="Layer 1">
    <g>
      <g>
        <path fill="#8b2e47" d="M12.75,50.79c.6,2.62,2.55,7.2,4.8,11.25l11.32,19.72,11.47-19.72c2.33-4.05,4.28-8.62,4.88-11.25h3.9c-2.33,2.48-5.4,6.9-7.95,11.25l-11.85,20.4v9.6c0,4.2.6,8.7,1.5,11.25h-11.77c.9-2.55,1.5-7.05,1.5-11.25v-7.42l-12.75-22.57c-2.48-4.35-5.55-8.77-7.8-11.25h12.75Z"/>
        <path fill="#8b2e47" d="M61.57,65.04c10.42,0,18.07,5.7,18.07,13.5,0,14.25-25.8,11.47-26.02,19.05,2.7,3.45,6.52,5.17,10.95,5.17,5.1,0,9.45-2.33,12.97-6.9h.9c-3.6,5.47-8.85,8.17-16.2,8.17-13.05,0-22.57-8.33-22.57-19.57s9.3-19.42,21.9-19.42ZM48.67,82.81c0,5.85,1.42,10.5,4.27,13.72.97-7.05,18.45-7.88,18.45-19.05,0-6.3-5.1-11.62-11.1-11.62-6.83,0-11.62,6.97-11.62,16.95Z"/>
        <path fill="#8b2e47" d="M89.17,54.54h1.5v11.25h8.47v.75h-8.47v27.37c0,5.4,3.15,8.62,8.47,8.62v.75h-2.4c-9.83,0-14.85-4.05-14.85-11.7v-25.05h-1.5v-.75c3.75-1.05,7.72-6.67,8.77-11.25Z"/>
        <path fill="#8b2e47" d="M106.27,51.31c3.22,0,5.7,2.1,5.7,4.57s-2.47,4.65-5.7,4.65-5.62-2.1-5.62-4.65,2.47-4.57,5.62-4.57ZM111.07,92.04c0,4.2.6,8.7,1.5,11.25h-11.78c.9-2.55,1.5-7.05,1.5-11.25v-15c0-4.2-.6-8.7-1.5-11.25h10.28v26.25Z"/>
        <path fill="#8b2e47" d="M148.5,94.51c0,6-6.23,9.52-16.88,9.52-7.05,0-13.2-1.5-16.95-4.28l-1.35-9.9c4.42,8.47,10.5,13.27,16.87,13.27,5.33,0,10.2-3.38,10.2-7.35,0-9.15-27.07-7.27-27.07-19.2,0-6.52,7.95-11.55,18.3-11.55,5.03,0,9.53,1.2,13.88,3.75l1.5,9.9c-4.88-8.1-10.42-12.52-15.67-12.52s-9.9,4.05-9.9,8.33c0,10.12,27.07,7.57,27.07,20.02Z"/>
        <path fill="#612032" d="M189.75,104.04c-8.77,0-16.5-2.17-21-6l-.75-9.15c3.97,7.72,13.72,14.1,21.6,14.1,6.53,0,11.77-3.9,11.77-8.7,0-12.6-33.22-15.97-33.22-30.75,0-7.72,8.92-13.5,20.92-13.5,7.35,0,14.25,2.18,18.9,6l.82,9.15c-5.17-8.32-13.27-14.1-19.8-14.1s-12.07,4.8-12.07,10.12c0,13.2,33.22,14.25,33.22,30.37,0,7.8-7.58,12.45-20.4,12.45Z"/>
        <path fill="#612032" d="M249.15,87.76c0,6,.6,12.37,1.5,15.97h-10.27v-9.67c-1.8,6.15-6.9,9.97-13.27,9.97-8.77,0-14.7-7.2-14.7-18v-9c0-4.2-.6-8.7-1.5-11.25h9.97v17.25c0,11.32,3.3,17.1,9.3,17.1s10.2-4.72,10.2-10.95v-12.15c0-4.2-.6-8.7-1.5-11.25h10.27v21.97Z"/>
        <path fill="#612032" d="M260.77,84.54c0,11.1,6.07,18,15.45,18,5.1,0,9.15-2.25,12.52-6.67h.9c-3.52,5.55-8.7,8.17-15.9,8.17-12.75,0-21.97-8.33-21.97-19.8s9.07-19.2,22.5-19.2c5.02,0,9.15,1.12,13.8,3.75l1.72,11.17c-4.95-9.15-10.5-14.1-16.05-14.1-7.27,0-12.97,8.1-12.97,18.67Z"/>
        <path fill="#612032" d="M328.8,87.76c0,6,.6,12.37,1.5,15.97h-10.27v-9.67c-1.8,6.15-6.9,9.97-13.27,9.97-8.77,0-14.7-7.2-14.7-18v-9c0-4.2-.6-8.7-1.5-11.25h9.97v17.25c0,11.32,3.3,17.1,9.3,17.1s10.2-4.72,10.2-10.95v-12.15c0-4.2-.6-8.7-1.5-11.25h10.27v21.97Z"/>
      </g>
      <g>
        <path fill="#5f1625" d="M32.17,26.8c-2.98-.1-6.11.61-9.02,1.34-2.69.67-5.44,1.79-8.03,2.72-1.54,4.9-2.88,9.7-3.65,14.05-.86,4.86-.67,8.67.83,11.23,2.14,2.14-1.02,4-2.56.67-1.02-2.02-.74-6.46.38-12.35,0-5.12-.93-10.3-5.79-11.84-3.68-1.02-1.02-4.45.96-2.72,2.18,1.15,4.93.8,8.1-.06,2.4-9.98,5.57-20.57,9.31-28.22,1.38-2.82,4.99-1.79,2.78,1.79-.13.51-5.57,12.83-9.79,25.73,2.56-.8,5.28-1.79,8-2.43,2.3-.54,5.57-1.15,8.86-1.25.99-3.42,2.05-6.5,3.04-9.02,1.47-3.74,3.04-7.3,4.67-10.69,1.38-2.82,4.99-1.79,2.78,1.79.06-.22-1.92,3.2-4.32,8.38-1.06,2.21-2.53,5.63-3.94,9.6,2.82.22,5.38,1.02,7.01,2.82s-1.02,2.53-1.63,1.5c-1.7-1.66-3.71-2.53-5.89-2.88-3.2,9.18-5.82,20.64-2.11,25.37,1.34,1.76-1.63,3.36-2.56.67-1.95-5.54-.1-16.73,2.56-26.21ZM12.97,31.6c-1.7.61-3.3.83-5.18.93,2.08,2.05,2.98,4.54,3.33,7.23.54-2.59,1.18-5.34,1.86-8.16Z"/>
        <path fill="#5f1625" d="M45.34,36.3c-.26,1.38.74.99,1.44.35,1.86-1.54,4.35-5.98,4.86-6.5,1.47-1.22,3.3-.03,2.62,1.44-1.63,3.36-1.6,5.54-.1,5.89,3.07.26,7.9-4.93,10.05-7.55.86-1.22,2.34-.61,1.02.8-2.72,3.33-7.17,8.29-11.74,8.03-2.88-.16-3.49-2.34-2.4-4.74-1.92,2.43-4.22,5.38-6.82,4.1-1.76-.83-1.6-3.1-1.28-4.61.58-2.78,2.05-5.66,2.85-6.82,1.28-1.73,3.17-.77,2.66,1.34-.42,1.44-2.82,6.27-3.17,8.26ZM51.1,23.54c-.77,1.28-3.1,1.02-2.59-.77.51-2.14,4.67-3.65,2.59.77ZM57.5,23.54c-.77,1.28-3.1,1.02-2.59-.77.51-2.14,4.67-3.65,2.59.77Z"/>
        <path fill="#5f1625" d="M65.17,48.78c3.23.9,9.57-7.46,13.54-14.11.99-1.66,1.92-3.3,2.91-4.74.93-1.54,2.08-.64.96.9-1.06,1.63-2.11,3.42-3.23,5.25-4,6.72-10.69,13.92-14.46,13.5-5.12-.64-3.39-9.86-1.47-16.8,2.85-10.69,7.46-22.4,11.26-26.33,2.11-2.11,5.25-1.95,4.48,2.21-1.02,5.63-7.68,14.75-11.9,20.25-1.54,3.17-6.88,18.62-2.08,19.87ZM68.53,24.88c2.4-3.46,5.18-7.78,7.04-11.49,2.66-5.22,1.25-5.15-1.66-.54-2.05,3.3-3.87,7.71-5.38,12.03Z"/>
        <path fill="#5f1625" d="M90.8,30.32c-.77,1.12-1.86,2.82-2.91,4.35-1.54,2.3-3.36,4.16-5.6,3.33-1.82-.7-1.79-3.84-1.44-5.34.61-2.85,1.89-5.76,2.85-6.82,1.18-1.44,3.01-.51,2.66,1.34-.42,1.44-3.01,5.12-3.17,8.26-.26,1.38.74.99,1.44.35,1.79-1.47,5.06-5.31,6.4-7.49.38-.54,1.57-1.15,1.57.58-.03,1.79-.32,5.02-.99,8.9,3.84-3.42,9.02-6.46,13.12-7.84,2.05-.77,1.41.96.64,1.12-4.38,1.02-10.37,5.02-14.14,8.9-1.54,8.06-4.61,18.01-9.79,22.94-2.14,2.05-5.25,1.98-4.48-2.21,1.02-5.6,8.29-15.71,11.9-20.25,1.02-3.39,1.95-7.97,2.37-9.98.22-1.06,0-.77-.42-.13ZM87.57,44.46c-2.4,3.42-5.15,7.81-7.04,11.49-2.66,5.22-1.25,5.15,1.66.54,2.05-3.3,3.87-7.71,5.38-12.03Z"/>
        <path fill="#5f1625" d="M104.71,36.56c-1.02-.51-1.28-1.92-1.12-3.23.61-5.25,5.92-9.41,11.26-8.64,1.63.22,3.14.96,3.87,2.5.67,1.44-1.15,1.79-1.76.26-.61-1.12-1.54-1.66-2.56-1.76-2.62-.26-5.7,2.75-6.88,5.66-.26.58-.9,2.27-.45,2.88.51.77,5.89-5.18,6.53-5.82,1.54-1.44,3.3-.77,2.85.64-1.44,4.35-.58,6.21,1.22,6.62,3.07.67,8.99-2.98,11.3-5.73.86-1.22,2.34-.61,1.02.8-2.85,3.36-8.22,6.75-12.93,6.24-3.84-.35-5.15-3.68-3.36-7.17-1.38,1.12-5.54,8.54-8.99,6.75Z"/>
      </g>
      <g>
        <path fill="#3c101c" d="M98.44,16.94c-.57,0-1.05-.1-1.46-.3-.41-.2-.75-.47-1.01-.8-.27-.33-.46-.68-.59-1.06s-.2-.74-.2-1.08v-.19c0-.38.07-.75.2-1.13s.33-.73.61-1.04c.27-.31.61-.57,1.02-.76.41-.19.89-.29,1.44-.29s1.04.1,1.44.29c.41.19.75.44,1.02.76.27.31.47.66.61,1.04s.2.76.2,1.13v.19c0,.35-.06.71-.19,1.08s-.33.73-.59,1.06c-.26.33-.6.59-1.01.8-.41.2-.9.3-1.46.3ZM98.44,16.16c.37,0,.7-.07,1-.21s.55-.33.76-.57c.21-.24.37-.51.48-.81.11-.3.17-.62.17-.96,0-.35-.06-.68-.17-.99-.11-.31-.27-.58-.48-.81-.21-.23-.46-.42-.76-.55s-.63-.2-1-.2-.7.07-1,.2c-.3.13-.55.32-.76.55-.21.23-.37.5-.48.81-.11.31-.16.64-.16.99s.05.65.16.96c.11.3.27.57.48.81s.46.43.76.57c.3.14.63.21,1,.21Z"/>
        <path fill="#3c101c" d="M102.97,18.52v-6.35h.66v2l-.16-.02c.03-.5.13-.9.32-1.22s.42-.55.71-.7c.29-.15.61-.23.96-.23s.64.06.91.19c.27.13.51.3.71.52s.35.47.45.76.16.59.16.92v.16c0,.32-.06.63-.17.92s-.26.54-.46.76c-.2.22-.44.39-.71.52s-.58.19-.9.19-.64-.07-.94-.22c-.3-.14-.55-.38-.75-.7s-.31-.75-.34-1.27l.38.69v3.07h-.83ZM105.32,16.21c.31,0,.58-.07.81-.22.23-.15.41-.35.54-.61s.19-.56.19-.9-.06-.65-.19-.91-.31-.46-.54-.61-.5-.22-.81-.22c-.28,0-.53.06-.77.19-.24.12-.43.3-.57.54-.14.23-.21.52-.21.84v.4c0,.32.07.59.22.81.14.23.33.4.57.52.24.12.49.18.76.18Z"/>
        <path fill="#3c101c" d="M108.65,16.79v-1.06h1v1.06h-1Z"/>
        <path fill="#3c101c" d="M113.18,16.82v-6.39h.85v6.39h-.85ZM113.85,16.82v-.78h1.58c.38,0,.72-.06,1.02-.19.3-.12.55-.3.76-.52.21-.22.37-.48.48-.77.11-.29.16-.61.16-.95s-.05-.68-.16-.97-.27-.55-.48-.76-.46-.38-.76-.5c-.3-.12-.64-.17-1.02-.17h-1.58v-.78h1.49c.57,0,1.07.09,1.49.26.42.18.77.41,1.05.71.28.3.49.63.63,1,.14.37.21.74.21,1.12v.19c0,.37-.07.74-.21,1.11-.14.37-.35.7-.63,1-.28.3-.63.54-1.05.72-.42.18-.92.27-1.49.27h-1.49Z"/>
        <path fill="#3c101c" d="M119.9,16.79v-4.62h.66v1.9h-.03c0-.68.15-1.17.45-1.48.3-.31.74-.47,1.34-.47h.16v.74h-.29c-.46,0-.82.12-1.06.37-.25.25-.37.6-.37,1.06v2.5h-.83Z"/>
        <path fill="#3c101c" d="M122.75,16.79v-1.06h1v1.06h-1Z"/>
      </g>
      <g>
        <path fill="#3c101c" d="M18.84,123.8v-10.23h1.37v10.23h-1.37ZM25.29,123.8l-4.16-4.78h-1.5l4.75-5.45h1.57l-4.32,4.93-.13-.97,5.49,6.27h-1.71Z"/>
        <path fill="#3c101c" d="M27.19,123.8l3.69-10.23h2.33l3.8,10.23h-1.42l-3.43-9.33.67.34h-1.65l.71-.34-3.32,9.33h-1.37ZM29.39,120.74l.46-1.23h4.42l.46,1.23h-5.34Z"/>
        <path fill="#3c101c" d="M38.88,123.85v-10.34h1.37v10.34h-1.37ZM39.98,123.85v-1.26h2.55c.62,0,1.17-.1,1.65-.3.48-.2.89-.48,1.23-.83.34-.35.6-.77.78-1.25.18-.48.27-.99.27-1.54,0-.58-.09-1.1-.27-1.58-.18-.47-.44-.88-.78-1.23-.34-.35-.75-.62-1.23-.81-.48-.19-1.03-.28-1.65-.28h-2.55v-1.26h2.41c.92,0,1.73.14,2.41.43s1.25.67,1.7,1.15c.45.48.79,1.02,1.02,1.61.22.59.34,1.2.34,1.81v.31c0,.6-.11,1.2-.34,1.79s-.56,1.14-1.02,1.63c-.45.49-1.02.88-1.7,1.17-.68.29-1.49.44-2.41.44h-2.41Z"/>
        <path fill="#3c101c" d="M50,123.8v-10.23h1.37v10.23h-1.37Z"/>
        <path fill="#3c101c" d="M54.37,123.8v-10.23h2.24l5.2,9h.45l-.28.25v-9.25h1.32v10.23h-2.27l-5.2-9h-.45l.28-.25v9.25h-1.29Z"/>
        <path fill="#3c101c" d="M69.46,123.8v-10.23h1.37v10.23h-1.37ZM70.56,119.33v-1.23h6.11v1.23h-6.11ZM76.39,123.8v-10.23h1.37v10.23h-1.37Z"/>
        <path fill="#3c101c" d="M79.64,123.8l3.69-10.23h2.33l3.8,10.23h-1.42l-3.43-9.33.67.34h-1.65l.71-.34-3.32,9.33h-1.37ZM81.84,120.74l.46-1.23h4.42l.46,1.23h-5.34Z"/>
        <path fill="#3c101c" d="M94.57,124.05c-.85,0-1.57-.14-2.17-.42-.6-.28-1.06-.67-1.37-1.16-.32-.5-.48-1.06-.48-1.68h1.37c0,.31.08.62.25.92.16.31.44.57.83.77s.91.31,1.58.31c.62,0,1.12-.09,1.51-.27.39-.18.68-.42.87-.71.19-.29.28-.61.28-.96,0-.42-.18-.77-.55-1.04-.36-.28-.9-.45-1.6-.51l-1.14-.1c-.91-.07-1.63-.35-2.17-.84-.54-.49-.81-1.13-.81-1.92,0-.63.15-1.17.46-1.64.3-.47.73-.83,1.27-1.1.54-.27,1.17-.4,1.89-.4s1.34.13,1.88.39c.54.26.96.63,1.27,1.1.3.47.46,1.04.46,1.69h-1.37c0-.33-.08-.64-.23-.93-.15-.29-.4-.53-.72-.71-.33-.19-.75-.28-1.28-.28s-.92.09-1.25.27-.58.41-.74.69-.25.59-.25.92c0,.37.14.71.43,1s.72.46,1.29.5l1.14.1c.7.06,1.31.2,1.82.44.51.24.9.56,1.18.95.28.4.41.87.41,1.42,0,.63-.17,1.18-.5,1.67-.34.49-.81.86-1.42,1.13-.61.27-1.31.41-2.12.41Z"/>
        <path fill="#3c101c" d="M99.53,114.8v-1.23h7.6v1.23h-7.6ZM102.64,123.8v-9.28h1.37v9.28h-1.37Z"/>
        <path fill="#3c101c" d="M107.1,123.8l3.69-10.23h2.33l3.8,10.23h-1.42l-3.43-9.33.67.34h-1.65l.71-.34-3.32,9.33h-1.37ZM109.3,120.74l.46-1.23h4.42l.46,1.23h-5.34Z"/>
        <path fill="#3c101c" d="M118.79,123.8v-10.23h1.37v10.23h-1.37ZM119.88,123.8v-1.23h4.68v1.23h-4.68Z"/>
        <path fill="#3c101c" d="M126.44,123.8v-10.23h1.37v10.23h-1.37Z"/>
        <path fill="#3c101c" d="M130.81,123.8v-10.23h1.37v10.23h-1.37ZM137.26,123.8l-4.16-4.78h-1.5l4.75-5.45h1.57l-4.32,4.93-.13-.97,5.49,6.27h-1.71Z"/>
        <path fill="#3c101c" d="M140.32,123.8v-10.23h1.37v10.23h-1.37ZM141.41,123.8v-1.23h4.68v1.23h-4.68Z"/>
        <path fill="#3c101c" d="M147.02,123.8l3.69-10.23h2.33l3.8,10.23h-1.42l-3.43-9.33.67.34h-1.65l.71-.34-3.32,9.33h-1.37ZM149.22,120.74l.46-1.23h4.42l.46,1.23h-5.34Z"/>
        <path fill="#3c101c" d="M158.7,123.8v-10.29h1.37v10.29h-1.37ZM159.56,120.1v-1.22h2.75c.43,0,.8-.09,1.11-.27.31-.18.55-.42.71-.74.17-.31.25-.67.25-1.07s-.08-.76-.25-1.07c-.17-.31-.41-.56-.71-.74-.31-.18-.68-.27-1.11-.27h-2.75v-1.21h2.5c.75,0,1.4.11,1.96.34.56.22,1,.57,1.3,1.04.31.47.46,1.07.46,1.81v.22c0,.74-.16,1.34-.47,1.81-.31.47-.75.81-1.3,1.04-.56.22-1.21.34-1.96.34h-2.5ZM165.03,123.8l-3.39-4.56h1.61l3.45,4.56h-1.67Z"/>
        <path fill="#3c101c" d="M168.54,123.8v-10.23h1.37v10.23h-1.37Z"/>
        <path fill="#3c101c" d="M178.48,123.8l-3.55-10.23h1.42l3.18,9.33-.67-.34h1.68l-.71.34,2.93-9.33h1.37l-3.29,10.23h-2.35Z"/>
        <path fill="#3c101c" d="M186.88,123.8v-10.23h1.37v10.23h-1.37ZM187.97,114.8v-1.23h4.82v1.23h-4.82ZM187.97,119.21v-1.23h4.53v1.23h-4.53ZM187.97,123.8v-1.23h4.96v1.23h-4.96Z"/>
        <path fill="#3c101c" d="M200.16,123.85v-10.34h1.37v10.34h-1.37ZM201.26,123.85v-1.26h2.55c.62,0,1.17-.1,1.65-.3s.89-.48,1.23-.83c.34-.35.6-.77.78-1.25s.27-.99.27-1.54c0-.58-.09-1.1-.27-1.58-.18-.47-.44-.88-.78-1.23-.34-.35-.75-.62-1.23-.81-.48-.19-1.03-.28-1.65-.28h-2.55v-1.26h2.41c.93,0,1.73.14,2.41.43.68.29,1.25.67,1.7,1.15s.79,1.02,1.02,1.61c.22.59.34,1.2.34,1.81v.31c0,.6-.11,1.2-.34,1.79-.22.6-.56,1.14-1.02,1.63s-1.02.88-1.7,1.17c-.68.29-1.49.44-2.41.44h-2.41Z"/>
        <path fill="#3c101c" d="M216.67,124.05c-.92,0-1.71-.16-2.37-.49s-1.21-.76-1.64-1.29c-.43-.53-.75-1.1-.96-1.71-.21-.61-.32-1.19-.32-1.75v-.31c0-.61.11-1.22.32-1.84.21-.62.54-1.18.98-1.69.44-.51.99-.92,1.65-1.23.66-.31,1.44-.46,2.33-.46s1.67.15,2.33.46c.66.31,1.21.72,1.65,1.23.44.51.77,1.07.98,1.69.21.62.32,1.23.32,1.84v.31c0,.56-.1,1.14-.32,1.75-.21.61-.53,1.18-.96,1.71-.43.53-.98.96-1.64,1.29s-1.45.49-2.37.49ZM216.67,122.79c.6,0,1.14-.11,1.62-.34.48-.22.89-.53,1.23-.92.34-.39.59-.83.77-1.32.18-.49.27-1.01.27-1.55,0-.57-.09-1.1-.27-1.6-.18-.5-.43-.93-.77-1.31-.34-.38-.75-.67-1.23-.89s-1.02-.32-1.62-.32-1.14.11-1.62.32-.89.51-1.23.89c-.34.38-.59.82-.77,1.31-.18.5-.27,1.03-.27,1.6s.09,1.06.27,1.55c.18.49.43.93.77,1.32.34.39.75.69,1.23.92.48.22,1.02.34,1.62.34Z"/>
        <path fill="#3c101c" d="M229.62,124.05c-.79,0-1.51-.13-2.16-.39-.64-.26-1.2-.63-1.66-1.11-.46-.48-.82-1.04-1.07-1.69-.25-.65-.38-1.36-.38-2.12v-.31c0-.65.11-1.29.34-1.9.23-.61.56-1.16,1-1.65.43-.49.96-.88,1.59-1.16.63-.28,1.33-.43,2.12-.43.85,0,1.61.16,2.27.48.66.32,1.2.77,1.6,1.35.4.57.63,1.24.7,2h-1.4c-.07-.57-.25-1.04-.56-1.42-.31-.38-.69-.66-1.14-.85s-.94-.29-1.46-.29-1.02.1-1.47.29c-.45.19-.83.46-1.16.82-.32.36-.57.78-.75,1.28-.18.5-.27,1.05-.27,1.67,0,.7.1,1.32.29,1.84.19.53.46.97.81,1.32s.75.61,1.23.79.99.27,1.55.27c.79,0,1.49-.16,2.1-.48s1.06-.74,1.37-1.25l-.5,1.67v-3.04h1.29v2.44c-.46.6-1.05,1.07-1.77,1.4-.72.34-1.55.5-2.48.5ZM229.37,112.83c-.53,0-.96-.11-1.3-.32-.33-.21-.58-.5-.74-.86-.16-.36-.26-.76-.29-1.2h.95c.02.4.13.75.34,1.04.21.29.55.44,1.04.44s.86-.15,1.09-.44c.23-.29.35-.64.37-1.04h.87c-.02.44-.11.84-.28,1.2-.17.36-.42.65-.75.86-.33.22-.76.32-1.3.32ZM229.26,119.98v-1.15h5.48v1.15h-5.48Z"/>
        <path fill="#3c101c" d="M241.59,124.05c-.92,0-1.7-.18-2.33-.54-.63-.36-1.11-.86-1.43-1.51-.32-.65-.48-1.4-.48-2.26v-6.17h1.37v6.33c0,.57.11,1.07.33,1.51s.54.77.97,1.02c.43.24.95.37,1.57.37s1.14-.12,1.56-.36c.43-.24.75-.58.97-1.01.22-.43.33-.94.33-1.52v-6.33h1.37v6.17c0,.86-.16,1.61-.48,2.26-.32.65-.79,1.15-1.42,1.51s-1.41.54-2.34.54Z"/>
        <path fill="#3c101c" d="M249.44,123.8v-10.23h1.82l3.03,6.83h.22l3.01-6.83h1.84v10.23h-1.37v-8.73l.1.03-2.9,6.59h-1.68l-2.92-6.59.11-.03v8.73h-1.26Z"/>
        <path fill="#3c101c" d="M271.27,124.05c-.92,0-1.7-.18-2.33-.54-.63-.36-1.11-.86-1.43-1.51-.32-.65-.48-1.4-.48-2.26v-6.17h1.37v6.33c0,.57.11,1.07.33,1.51s.54.77.97,1.02c.43.24.95.37,1.57.37s1.14-.12,1.56-.36c.43-.24.75-.58.97-1.01.22-.43.33-.94.33-1.52v-6.33h1.37v6.17c0,.86-.16,1.61-.48,2.26-.32.65-.79,1.15-1.42,1.51s-1.41.54-2.34.54Z"/>
        <path fill="#3c101c" d="M278.33,123.8v-1.68l6.31-7.39v.34s-.38-.5-.38-.5l.24.15h-6.04v-1.15h7.34v1.68l-6.32,7.39v-.39s.43.63.43.63l-.35-.22h6.42v1.15h-7.65Z"/>
        <path fill="#3c101c" d="M288.96,123.8v-10.23h1.82l3.03,6.83h.22l3.01-6.83h1.84v10.23h-1.37v-8.73l.1.03-2.9,6.59h-1.68l-2.92-6.59.11-.03v8.73h-1.26Z"/>
        <path fill="#3c101c" d="M301.6,123.8l3.69-10.23h2.33l3.8,10.23h-1.42l-3.43-9.33.67.34h-1.65l.71-.34-3.32,9.33h-1.37ZM303.8,120.74l.46-1.23h4.42l.46,1.23h-5.34Z"/>
        <path fill="#3c101c" d="M314.13,123.8v-10.23h2.24l5.2,9h.45l-.28.25v-9.25h1.32v10.23h-2.27l-5.2-9h-.45l.28-.25v9.25h-1.29Z"/>
        <path fill="#3c101c" d="M326.9,123.8v-10.23h1.37v10.23h-1.37Z"/>
      </g>
      <path fill="#8b2e47" d="M127.55,107.93c0-1.79,1.21-3.05,2.91-3.05s2.86,1.26,2.86,3.05-1.11,3.05-2.91,3.05c-1.7,0-2.86-1.31-2.86-3.05Z"/>
    </g>
  </g>
</svg>
